<svg aria-hidden="true" style="position: absolute; width: 0; height: 0; overflow: hidden;" version="1.1" xmlns="http://www.w3.org/2000/svg" xmlns:xlink="http://www.w3.org/1999/xlink">
<defs>
<symbol id="icon-menu" viewBox="0 0 32 32">
<path fill="#f5f6f7" style="fill: var(--color1, #f5f6f7)" d="M16 32c8.837 0 16-7.163 16-16s-7.163-16-16-16c-8.837 0-16 7.163-16 16s7.163 16 16 16z"></path>
<path fill="#000" style="fill: var(--color2, #000)" d="M8.8 11.2v1.44h14.4v-1.44h-14.4zM8.8 15.52v1.44h14.4v-1.44h-14.4zM8.8 21.28v-1.44h14.4v1.44h-14.4z"></path>
</symbol>
<symbol id="icon-svg-three" viewBox="0 0 17 32">
<path d="M5.387 30.28v-13.544h-4.574v-5.382h4.574v-4.239c0-4.608 2.839-7.115 6.984-7.115 1.986 0 3.691 0.149 4.186 0.213v4.815h-2.872c-2.255 0-2.69 1.064-2.69 2.618v3.708h5.088l-0.696 5.384h-4.393v13.542z"></path>
</symbol>
<symbol id="icon-svg-two" viewBox="0 0 39 32">
<path d="M34.377 7.986c0.023 0.32 0.023 0.645 0.023 0.965 0 9.813-7.582 21.12-21.44 21.12-0.020 0-0.043 0-0.066 0-4.268 0-8.247-1.242-11.593-3.384l0.086 0.052c0.608 0.069 1.189 0.091 1.819 0.091 3.525 0 6.766-1.17 9.355-3.17-3.314-0.069-6.089-2.206-7.045-5.147 0.466 0.069 0.933 0.114 1.422 0.114 0.677 0 1.353-0.091 1.984-0.251-3.451-0.69-6.043-3.68-6.043-7.287v-0.091c1.006 0.553 2.171 0.896 3.406 0.942-2.031-1.335-3.354-3.602-3.36-6.177v-0.001c0-1.378 0.375-2.642 1.029-3.746 3.761 4.514 9.278 7.455 15.487 7.765l0.051 0.002c-0.116-0.51-0.184-1.096-0.187-1.698v-0.003c0-4.091 3.36-7.422 7.536-7.422 2.171 0 4.13 0.896 5.506 2.343 1.801-0.348 3.405-0.971 4.851-1.83l-0.069 0.038c-0.589 1.751-1.761 3.175-3.28 4.073l-0.035 0.019c1.609-0.184 3.077-0.589 4.441-1.188l-0.098 0.038c-1.053 1.497-2.305 2.768-3.734 3.808l-0.046 0.032z"></path>
</symbol>
<symbol id="icon-svg-four" viewBox="0 0 30 32">
<path d="M6.583 30.254h-6.094v-19.76h6.094v19.76zM3.534 7.799c-1.952 0-3.534-1.627-3.534-3.589 0-0.003-0-0.007-0-0.011 0-1.953 1.58-3.536 3.531-3.543h0.001c1.952 0.006 3.531 1.59 3.531 3.543 0 0.004 0 0.008-0 0.012v-0.001c0 1.963-1.582 3.589-3.531 3.589zM29.41 30.254h-6.085v-9.618c0-2.293-0.046-5.234-3.17-5.234-3.17 0-3.657 2.491-3.657 5.070v9.783h-6.094v-19.76h5.849v2.697h0.085c0.814-1.554 2.802-3.193 5.771-3.193 6.171 0 7.305 4.091 7.305 9.401v10.857h-0.007z"></path>
</symbol>
<symbol id="icon-img-three" viewBox="0 0 30 32">
<path d="M15.111 8.498c-4.19 0-7.587 3.396-7.588 7.586v0c-0 0.012-0 0.027-0 0.041 0 4.168 3.379 7.547 7.547 7.547 0.014 0 0.029-0 0.043-0h-0.002c4.191 0 7.588-3.397 7.588-7.588v0c0-4.156-3.431-7.588-7.588-7.588zM15.111 21.031c-0.002 0-0.003 0-0.005 0-2.729 0-4.942-2.213-4.942-4.942 0-0.002 0-0.004 0-0.006v0c0-2.706 2.174-4.884 4.948-4.884 0.003 0 0.007 0 0.011 0 2.69 0 4.871 2.181 4.871 4.871 0 0.004 0 0.008 0 0.011v-0.001c0 2.77-2.178 4.948-4.882 4.948zM24.743 8.231c0-0.002 0-0.003 0-0.005 0-0.98-0.794-1.774-1.774-1.774-0.003 0-0.005 0-0.008 0h0c-0.002 0-0.005 0-0.007 0-0.98 0-1.774 0.794-1.774 1.774 0 0.002 0 0.005 0 0.008v-0c0 0.002 0 0.005 0 0.007 0 0.98 0.794 1.774 1.774 1.774 0.003 0 0.005 0 0.008 0h-0c0.002 0 0.005 0 0.007 0 0.98 0 1.774-0.794 1.774-1.774 0-0.002 0-0.005 0-0.008v0zM29.756 10.014c-0.132-2.375-0.658-4.487-2.375-6.201-1.714-1.716-3.826-2.244-6.201-2.375-2.441-0.133-9.764-0.133-12.203 0-2.375 0.132-4.421 0.658-6.201 2.375-1.717 1.714-2.245 3.826-2.377 6.201-0.133 2.441-0.133 9.764 0 12.204 0.132 2.375 0.658 4.42 2.375 6.201 1.781 1.716 3.826 2.244 6.201 2.375 2.441 0.133 9.764 0.133 12.204 0 2.375-0.132 4.487-0.658 6.201-2.375 1.716-1.781 2.244-3.826 2.375-6.201 0.133-2.441 0.133-9.764 0-12.204zM26.59 24.791c-0.462 1.319-1.518 2.311-2.772 2.837-1.979 0.791-6.596 0.594-8.708 0.594-2.178 0-6.795 0.197-8.708-0.594-1.304-0.52-2.318-1.533-2.825-2.804l-0.012-0.034c-0.791-1.913-0.594-6.532-0.594-8.708 0-2.112-0.197-6.729 0.594-8.709 0.543-1.271 1.55-2.256 2.803-2.758l0.034-0.012c1.913-0.791 6.53-0.594 8.708-0.594 2.112 0 6.729-0.197 8.708 0.594 1.255 0.462 2.244 1.516 2.772 2.77 0.791 1.98 0.594 6.597 0.594 8.709 0 2.176 0.197 6.795-0.594 8.708z"></path>
</symbol>
</defs>
</svg>
